<?xml version="1.0" encoding="iso-8859-1"?>
<!-- Generator: Adobe Illustrator 19.0.0, SVG Export Plug-In . SVG Version: 6.00 Build 0)  -->
<svg version="1.1" id="Capa_1" xmlns="http://www.w3.org/2000/svg" xmlns:xlink="http://www.w3.org/1999/xlink" x="0px" y="0px"
	 viewBox="0 0 512 512" style="enable-background:new 0 0 512 512;" xml:space="preserve">
<path style="fill:#5B6EA2;" d="M463.332,504.5H48.668c-22.672,0-41.052-18.38-41.052-41.052V86.75
	c0-22.672,18.379-41.052,41.052-41.052h414.664c22.672,0,41.052,18.38,41.052,41.052v376.698
	C504.384,486.12,486.004,504.5,463.332,504.5z"/>
<path style="fill:#EEF0F1;" d="M374.724,474.655H63.492c-14.377,0-26.032-11.655-26.032-26.031v-347.05
	c0-14.377,11.655-26.032,26.032-26.032h385.016c14.377,0,26.031,11.655,26.031,26.032V374.84L374.724,474.655z"/>
<path style="fill:#EC7887;" d="M504.384,181.72H7.616V86.75c0-22.672,18.379-41.052,41.052-41.052h414.664
	c22.672,0,41.052,18.38,41.052,41.052V181.72z"/>
<g>
	<ellipse style="fill:#FFFFFF;" cx="156.55" cy="133.73" rx="36.653" ry="29.19"/>
	<ellipse style="fill:#FFFFFF;" cx="355.22" cy="133.73" rx="36.653" ry="29.19"/>
</g>
<path style="fill:#609AD6;" d="M412.283,382.383h9.575c19.759,0,38.71-7.849,52.681-21.821l0,0v14.279
	c0,55.126-44.689,99.815-99.815,99.815h-14.279l0.001-0.001c13.972-13.972,21.821-32.922,21.821-52.681V412.4
	C382.267,395.821,395.706,382.383,412.283,382.383z"/>
<path style="opacity:0.15;enable-background:new    ;" d="M7.616,181.72v40.377c0,14.965,15.129,25.186,29.013,19.601l5.824-2.343
	c7.319-2.944,15.668-1.566,21.652,3.574l0,0c8.984,7.717,21.371,10.127,32.593,6.341l32.608-11.002
	c7.121-2.403,14.836-2.387,21.947,0.044l27.789,9.5c9.393,3.211,19.719,2.173,28.285-2.844l9.901-5.799
	c9.306-5.451,20.642-6.181,30.571-1.97l20.632,8.751c8.186,3.472,17.404,3.612,25.691,0.389l27.074-10.528
	c8.712-3.388,18.433-3.053,26.892,0.926l25.965,12.214c8.702,4.094,18.728,4.325,27.61,0.637l26.344-10.938
	c7.611-3.16,16.109-3.459,23.924-0.842l24.614,8.245c13.686,4.585,27.838-5.6,27.838-20.033v-44.3H7.616z"/>
<path style="fill:#EEF0F1;" d="M7.616,181.72v16.87c0,14.965,15.129,25.186,29.013,19.601l5.824-2.343
	c7.319-2.944,15.668-1.566,21.652,3.574l0,0c8.984,7.717,21.371,10.127,32.593,6.34l32.608-11.002
	c7.121-2.403,14.836-2.387,21.947,0.044l27.789,9.5c9.393,3.211,19.719,2.173,28.285-2.844l9.901-5.799
	c9.306-5.451,20.642-6.181,30.571-1.97l20.632,8.751c8.186,3.472,17.404,3.612,25.691,0.389l27.074-10.527
	c8.712-3.388,18.433-3.053,26.892,0.926l25.965,12.214c8.702,4.094,18.728,4.325,27.61,0.637l26.344-10.938
	c7.611-3.16,16.109-3.459,23.924-0.841l24.614,8.245c13.686,4.585,27.838-5.6,27.838-20.033V181.72H7.616z"/>
<path style="fill:#BDC0C3;" d="M255.884,436.57c-48.898,0-88.678-39.781-88.678-88.678s39.78-88.678,88.678-88.678
	s88.679,39.781,88.679,88.678S304.781,436.57,255.884,436.57z M255.884,274.213c-40.626,0-73.678,33.052-73.678,73.678
	s33.052,73.678,73.678,73.678c40.627,0,73.679-33.052,73.679-73.678S296.511,274.213,255.884,274.213z"/>
<path style="opacity:0.1;enable-background:new    ;" d="M143.042,45.698H48.668c-11.336,0-21.599,4.595-29.028,12.024
	c-0.928,0.928-1.813,1.901-2.649,2.915c-0.837,1.014-1.625,2.068-2.363,3.16c-4.427,6.552-7.011,14.451-7.011,22.953v376.698
	c0,8.048,2.325,15.549,6.326,21.885c0.93,1.473,1.943,2.889,3.048,4.228c0.837,1.014,1.721,1.987,2.649,2.915
	c5.108,5.107,11.554,8.875,18.769,10.731c0.656,0.169,1.318,0.322,1.986,0.458c2.673,0.547,5.439,0.834,8.273,0.834h326.094
	C114.9,449.997,135.448,133.62,143.042,45.698z"/>
<g>
	<path style="fill:#495059;" d="M80.87,95.286h-7.032c-14.101,0-25.533-11.432-25.533-25.533v-36.72
		C48.305,18.931,59.736,7.5,73.838,7.5h7.032c14.101,0,25.533,11.431,25.533,25.533v36.721
		C106.403,83.855,94.971,95.286,80.87,95.286z"/>
	<path style="fill:#495059;" d="M431.13,95.286h7.032c14.101,0,25.533-11.432,25.533-25.533v-36.72
		c0-14.101-11.431-25.533-25.533-25.533h-7.032c-14.101,0-25.533,11.431-25.533,25.533v36.721
		C405.598,83.855,417.029,95.286,431.13,95.286z"/>
</g>
<path d="M264.656,306.038c-2.509-1.282-5.525-1.049-7.808,0.603l-20.892,15.118c-3.356,2.429-4.107,7.117-1.68,10.473
	c2.429,3.357,7.12,4.107,10.473,1.679l8.995-6.509v56.541c0,4.142,3.357,7.5,7.5,7.5s7.5-3.358,7.5-7.5v-71.227
	C268.745,309.899,267.166,307.319,264.656,306.038z M170.41,91.665v12.943c0,4.142,3.357,7.5,7.5,7.5s7.5-3.358,7.5-7.5V91.665
	c0-4.142-3.357-7.5-7.5-7.5C173.768,84.165,170.41,87.523,170.41,91.665z M326.357,91.665v12.943c0,4.142,3.357,7.5,7.5,7.5
	s7.5-3.358,7.5-7.5V91.665c0-4.142-3.357-7.5-7.5-7.5C329.715,84.165,326.357,87.523,326.357,91.665z M270.788,100.255
	c-3.764,4.317-9.195,6.793-14.904,6.793s-11.141-2.476-14.904-6.793c-2.721-3.123-7.459-3.448-10.581-0.726
	c-3.123,2.722-3.447,7.459-0.726,10.582c6.612,7.586,16.166,11.938,26.211,11.938s19.599-4.351,26.211-11.938
	c2.722-3.122,2.397-7.86-0.726-10.582C278.247,96.807,273.508,97.132,270.788,100.255z M504.384,103.633c4.143,0,7.5-3.358,7.5-7.5
	v-9.384c0-24.007-17.671-44.115-40.688-47.901v-5.816C471.195,14.818,456.377,0,438.162,0h-7.031
	c-18.215,0-33.033,14.818-33.033,33.033v5.165H113.902v-5.165C113.902,14.818,99.084,0,80.87,0h-7.032
	C55.623,0,40.805,14.818,40.805,33.033v5.816c-23.018,3.785-40.689,23.894-40.689,47.9v376.699C0.116,490.22,21.896,512,48.668,512
	h18.936c4.143,0,7.5-3.358,7.5-7.5s-3.357-7.5-7.5-7.5H48.668c-18.501,0-33.552-15.051-33.552-33.552V223.751
	c4.589,2.488,9.718,3.65,14.845,3.43v221.442c0,18.489,15.042,33.531,33.531,33.531h311.232
	c59.174,0,107.314-48.141,107.314-107.315V231.128c5.146,0.238,10.246-0.926,14.845-3.438v235.758
	c0,18.5-15.052,33.552-33.552,33.552H103.229c-4.143,0-7.5,3.358-7.5,7.5s3.357,7.5,7.5,7.5h360.103
	c26.771,0,48.552-21.78,48.552-48.552V131.453c0-4.142-3.357-7.5-7.5-7.5s-7.5,3.358-7.5,7.5v42.767H15.116V86.749
	c0-15.733,10.987-29.035,25.688-32.598v15.602c0,18.214,14.818,33.033,33.033,33.033h7.032c18.214,0,33.032-14.818,33.032-33.033
	V53.198h284.195v16.556c0,18.214,14.818,33.033,33.033,33.033h7.031c18.215,0,33.033-14.818,33.033-33.033V54.151
	c14.702,3.563,25.688,16.866,25.688,32.598v9.384C496.884,100.275,500.241,103.633,504.384,103.633z M376.236,467.143
	c8.805-13.287,13.531-28.865,13.531-45.17v-9.574c0-12.415,10.101-22.516,22.516-22.516h9.575c16.305,0,31.882-4.726,45.168-13.53
	C466.223,426.057,425.941,466.343,376.236,467.143z M467.039,357.35c-12.374,11.326-28.298,17.532-45.181,17.532h-9.575
	c-20.686,0-37.516,16.83-37.516,37.516v9.574c0,16.882-6.207,32.807-17.534,45.182H63.492c-10.218,0-18.531-8.313-18.531-18.531
	v-225.7l0.291-0.117c4.738-1.906,10.091-1.024,13.967,2.305c10.936,9.394,26.219,12.369,39.878,7.758l32.607-11.002
	c5.525-1.864,11.604-1.852,17.124,0.034l27.789,9.5c11.468,3.92,24.044,2.655,34.5-3.469l9.901-5.799
	c7.227-4.232,16.143-4.807,23.852-1.537l20.632,8.751c10.041,4.259,21.171,4.428,31.338,0.475l27.073-10.527
	c6.766-2.63,14.413-2.368,20.981,0.722l25.966,12.213c5.593,2.631,11.653,3.952,17.722,3.952c5.424,0,10.853-1.056,15.956-3.174
	l26.345-10.939c5.939-2.466,12.568-2.7,18.666-0.656l17.489,5.858L467.039,357.35L467.039,357.35z M496.884,189.22v13.29
	c0,4.438-2.065,8.469-5.667,11.062c-3.603,2.592-8.079,3.271-12.289,1.86l-2.146-0.719c-0.005-0.002-0.011-0.004-0.017-0.006
	l-22.451-7.52c-9.533-3.192-19.898-2.828-29.182,1.026l-26.345,10.938c-6.913,2.872-14.765,2.691-21.541-0.497l-25.966-12.213
	c-5.576-2.623-11.649-3.943-17.73-3.943c-5.116,0-10.238,0.935-15.071,2.814l-27.073,10.527c-6.503,2.529-13.621,2.422-20.045-0.304
	l-20.633-8.751c-12.053-5.112-25.993-4.213-37.289,2.403l-9.902,5.799c-6.688,3.918-14.733,4.727-22.067,2.219l-27.789-9.499
	c-8.627-2.949-18.134-2.968-26.771-0.054l-32.607,11.002c-8.67,2.924-18.369,1.038-25.31-4.924
	c-8.14-6.992-19.382-8.848-29.338-4.842l-5.088,2.047c-0.012,0.005-0.024,0.01-0.036,0.015l-0.7,0.282
	c-4.269,1.716-8.903,1.225-12.715-1.351c-3.813-2.575-5.999-6.691-5.999-11.292v-9.37L496.884,189.22L496.884,189.22z
	 M98.902,69.753c0,9.943-8.089,18.033-18.032,18.033h-7.032c-9.943,0-18.033-8.089-18.033-18.033v-36.72
	C55.805,23.09,63.895,15,73.838,15h7.032c9.943,0,18.032,8.089,18.032,18.033V69.753z M456.195,69.753
	c0,9.943-8.09,18.033-18.033,18.033h-7.031c-9.943,0-18.033-8.089-18.033-18.033v-36.72c0-9.943,8.09-18.033,18.033-18.033h7.031
	c9.943,0,18.033,8.089,18.033,18.033V69.753z"/>
<g>
</g>
<g>
</g>
<g>
</g>
<g>
</g>
<g>
</g>
<g>
</g>
<g>
</g>
<g>
</g>
<g>
</g>
<g>
</g>
<g>
</g>
<g>
</g>
<g>
</g>
<g>
</g>
<g>
</g>
</svg>
