<svg id="Capa_1" enable-background="new 0 0 512 512" height="512" viewBox="0 0 512 512" width="512" xmlns="http://www.w3.org/2000/svg"><g><g><path d="m44.433 160.946c4.059-55.756 52.631-99.534 108.531-98.899 33.091.375 62.58 15.698 82.065 39.524 4.168 5.097 11.955 5.097 16.123 0 19.484-23.826 48.974-39.149 82.065-39.524 55.9-.634 104.473 43.143 108.531 98.899 7.16 98.357-109.797 200.849-182.299 237.369-10.287 5.182-22.429 5.182-32.716 0-72.503-36.52-189.46-139.011-182.3-237.369z" fill="#eda1ab"/><path d="m258.275 341.409c0 18.432 3.65 36.026 10.251 52.108 60.241-33.183 144.17-106.174 167.369-183.864-12.649-3.842-26.059-5.917-39.947-5.917-75.913-.001-137.673 61.759-137.673 137.673z" fill="#e8899e"/><g><g fill="#fff"><path d="m182.155 181.165c0 15.671-15.952 28.375-35.631 28.375s-35.631-12.704-35.631-28.375 15.952-28.375 35.631-28.375c19.678.001 35.631 12.705 35.631 28.375z"/><path d="m304.026 181.165c0 15.671 15.952 28.375 35.631 28.375s35.631-12.704 35.631-28.375-15.953-28.375-35.631-28.375c-19.679.001-35.631 12.705-35.631 28.375z"/></g></g><path d="m358.802 257.632-54.357-54.358c-8.295-8.296-21.745-8.296-30.041 0l-67.6 67.6-49.698-49.698c-8.295-8.296-21.745-8.296-30.04 0l-36.456 36.456h-61.868c-11.731 0-21.242 9.51-21.242 21.242 0 11.731 9.51 21.242 21.242 21.242h70.667c5.633 0 11.036-2.238 15.02-6.221l27.657-27.658 49.698 49.698c8.29 8.29 21.745 8.294 30.041 0l67.6-67.6 45.559 45.559c3.984 3.983 9.387 6.221 15.02 6.221h48.006c11.732 0 21.242-9.51 21.242-21.242 0-11.731-9.51-21.242-21.242-21.242h-39.208z" fill="#f6ee86"/><g fill="#f2d98d"><path d="m114.429 293.894 20.476-20.477c-12.489-9.783-17.991-32.702-12.482-47.599l-31.813 31.814h-61.868c-11.731 0-21.242 9.51-21.242 21.242 0 11.731 9.51 21.242 21.242 21.242h70.667c5.633 0 11.036-2.238 15.02-6.222z"/><path d="m411.185 262.219c-3.622-2.869-8.197-4.587-13.176-4.587h-39.207l-34.031-34.031c-12.25 7.429-23.253 16.714-32.619 27.462l42.832 42.831c3.984 3.983 9.387 6.221 15.02 6.221h32.809c10.447-12.095 20.061-24.793 28.372-37.896z"/></g></g><ellipse cx="395.948" cy="341.409" fill="#eda1ab" rx="108.552" ry="108.552" transform="matrix(.707 -.707 .707 .707 -125.442 379.974)"/><path d="m417.386 314.284v-31.504c0-3.141-2.546-5.686-5.686-5.686h-31.504c-3.141 0-5.686 2.546-5.686 5.686v31.504c0 3.14-2.546 5.686-5.686 5.686h-31.504c-3.141 0-5.686 2.546-5.686 5.686v31.504c0 3.14 2.546 5.686 5.686 5.686h31.504c3.14 0 5.686 2.546 5.686 5.686v31.504c0 3.141 2.546 5.686 5.686 5.686h31.504c3.141 0 5.686-2.546 5.686-5.686v-31.504c0-3.141 2.546-5.686 5.686-5.686h31.504c3.141 0 5.686-2.546 5.686-5.686v-31.504c0-3.141-2.546-5.686-5.686-5.686h-31.504c-3.14 0-5.686-2.546-5.686-5.686z" fill="#fff"/><path d="m454.577 312.47h-29.69v-29.69c0-7.271-5.915-13.186-13.186-13.186h-31.504c-7.271 0-13.186 5.915-13.186 13.186v29.69h-29.69c-7.271 0-13.186 5.916-13.186 13.186v31.504c0 7.271 5.915 13.186 13.186 13.186h29.69v29.69c0 7.271 5.915 13.186 13.186 13.186h31.503c7.271 0 13.186-5.915 13.186-13.186v-29.69h29.69c7.271 0 13.186-5.915 13.186-13.186v-31.504c.001-7.27-5.914-13.186-13.185-13.186zm-1.814 42.877h-29.69c-7.271 0-13.187 5.915-13.187 13.186v29.691h-27.876v-29.691c0-7.271-5.916-13.186-13.187-13.186h-29.69v-27.877h29.69c7.271 0 13.187-5.915 13.187-13.186v-29.69h27.876v29.69c0 7.271 5.916 13.186 13.187 13.186h29.69zm-141.372-216.062v14.566c0 4.142 3.358 7.5 7.5 7.5s7.5-3.358 7.5-7.5v-14.566c0-4.142-3.358-7.5-7.5-7.5s-7.5 3.358-7.5 7.5zm-151.601 0v14.566c0 4.142 3.358 7.5 7.5 7.5s7.5-3.358 7.5-7.5v-14.566c0-4.142-3.358-7.5-7.5-7.5s-7.5 3.358-7.5 7.5zm275.786 93.042c10.71-24.927 15.315-49.089 13.652-71.926-1.387-19.052-7.782-37.649-18.495-53.782-2.293-3.451-6.947-4.39-10.397-2.099-3.451 2.291-4.39 6.946-2.099 10.397 9.288 13.986 14.831 30.091 16.031 46.573 1.523 20.922-2.924 43.306-13.202 66.612-8.091-1.793-16.495-2.746-25.117-2.746-17.22 0-33.572 3.775-48.282 10.533l-37.918-37.918c-11.206-11.208-29.441-11.206-40.647 0l-62.296 62.296-44.395-44.395c-11.206-11.208-29.441-11.207-40.647 0l-34.259 34.26h-11.101c-18.257-31.263-26.499-61.068-24.492-88.642 3.757-51.616 48.771-92.536 100.966-91.944 29.682.337 57.508 13.74 76.344 36.772 7.175 8.775 20.573 8.759 27.735 0 18.836-23.033 46.662-36.436 76.344-36.773 21.999-.254 43.922 7.093 61.754 20.675 3.295 2.509 8 1.873 10.511-1.422 2.51-3.295 1.874-8.001-1.422-10.511-20.478-15.598-45.729-24.051-71.013-23.742-34.134.39-66.131 15.799-87.785 42.279-1.169 1.428-3.342 1.429-4.511 0-21.654-26.479-53.651-41.889-87.786-42.276-59.787-.7-111.741 46.022-116.096 105.854-2.065 28.367 5.422 58.502 22.255 89.73h-30.466c-15.848 0-28.742 12.894-28.742 28.742s12.894 28.742 28.742 28.742c16.293-.002 69.918.01 71.197-.013 28.526 32.45 58.975 56.42 79.76 70.96 3.388 2.369 8.066 1.555 10.445-1.846 2.374-3.395 1.548-8.07-1.846-10.445-19.038-13.318-46.448-34.809-72.689-63.654 3.952-2.708 4.548-4.058 26.478-25.775l44.395 44.395c11.207 11.207 29.44 11.205 40.647 0l62.296-62.296 13.354 13.354c-14.369 19.32-22.882 43.24-22.882 69.113 0 11.679 1.741 22.958 4.966 33.599-9.984 6.427-19.648 12.006-28.788 16.609-8.13 4.096-17.839 4.095-25.968 0-3.928-1.978-8.018-4.172-12.157-6.521-3.603-2.044-8.18-.781-10.224 2.822s-.781 8.18 2.822 10.224c4.354 2.47 8.664 4.782 12.811 6.871 6.178 3.112 12.955 4.667 19.732 4.667s13.554-1.556 19.732-4.667c8.771-4.418 17.975-9.68 27.445-15.667 18.28 40.14 58.774 68.115 105.681 68.115 63.99 0 116.051-52.061 116.051-116.052 0-50.081-31.888-92.851-76.424-109.082zm-140.848 10.705c-2.929-2.929-7.678-2.929-10.606 0l-67.599 67.599c-5.359 5.358-14.077 5.357-19.435 0l-49.698-49.699c-2.926-2.927-7.678-2.929-10.606 0l-27.657 27.657c-2.621 2.621-6.108 4.025-9.718 4.025h-70.667c-7.577 0-13.742-6.164-13.742-13.742 0-7.577 6.165-13.742 13.742-13.742 30.585.001 49.273.002 61.868 0 1.989 0 3.897-.79 5.303-2.197l36.456-36.457c5.358-5.357 14.076-5.358 19.434 0l49.698 49.698c2.929 2.929 7.678 2.929 10.606 0l67.6-67.6c5.358-5.356 14.076-5.357 19.434 0l34.784 34.785c-7.816 4.962-15 10.833-21.406 17.462zm101.22 199.429c-55.72 0-101.052-45.332-101.052-101.052s45.332-101.052 101.052-101.052 101.052 45.332 101.052 101.052-45.332 101.052-101.052 101.052zm-138.528-293.971c-3.618 4.151-8.84 6.532-14.33 6.532-5.489 0-10.712-2.381-14.331-6.532-2.722-3.123-7.459-3.448-10.582-.726-3.122 2.721-3.448 7.459-.726 10.581 6.467 7.421 15.812 11.677 25.638 11.677 9.827 0 19.172-4.256 25.639-11.677 2.721-3.123 2.396-7.86-.727-10.582-3.122-2.721-7.86-2.396-10.581.727z"/></g></svg>